<svg width="176" height="176" viewBox="0 0 176 176" fill="none" xmlns="http://www.w3.org/2000/svg">
<g filter="url(#filter0_d_233_6)">
<circle cx="88" cy="84" r="81" fill="white"/>
</g>
<circle cx="86.3406" cy="89.7615" r="5.18974" fill="#FFF7F7"/>
<path d="M78.8628 99.3797C77.284 103.637 79.9508 107.207 81.7648 110.19C82.405 111.242 83.0273 112.24 83.8999 112.564C84.7725 112.887 85.8951 112.537 87.0671 112.155C90.3877 111.078 94.7362 110.109 96.3146 105.852C97.8931 101.595 94.2141 96.794 88.7693 99.4319C86.3606 93.8819 80.4415 95.122 78.8628 99.3797Z" fill="white"/>
<path d="M92.4016 39.3144C93.6654 34.2455 92.4768 29.6594 91.7246 28C87.8882 40.4458 79.7638 43.6138 70.5113 51.0813C63.1092 57.0553 59.9046 68.5054 59.2276 73.4837C57.4222 99.9593 66.6748 116.026 75.7018 130.508C84.7287 144.99 103.685 143.406 109.778 130.508C115.872 117.61 109.778 108.558 103.685 102.448C98.8107 97.5607 92.6272 97.3947 90.1448 97.9227C95.561 90.8626 91.198 85.6278 88.3394 83.8929C84.7287 82.6106 76.5142 78.7336 72.5424 73.4837C68.5705 68.2339 70.8874 64.5077 72.5424 63.3008C77.7328 66.4688 80.6666 67.374 82.2463 64.206C83.826 61.0379 86.3084 58.3225 89.0165 57.191C91.7246 56.0596 93.53 57.191 91.7246 51.0813C89.9192 44.9715 90.8219 45.6504 92.4016 39.3144Z" fill="url(#paint0_linear_233_6)"/>
<path d="M116.937 54.2648C116.939 54.5139 116.863 54.7574 116.72 54.9615C116.578 55.1656 116.375 55.3201 116.14 55.4036L111.325 57.155L109.575 61.9703C109.489 62.2028 109.334 62.4032 109.13 62.5448C108.927 62.6864 108.685 62.7623 108.437 62.7623C108.189 62.7623 107.947 62.6864 107.744 62.5448C107.54 62.4032 107.385 62.2028 107.299 61.9703L105.549 57.1542L100.734 55.4036C100.501 55.3173 100.301 55.1619 100.16 54.9584C100.018 54.7548 99.9421 54.5128 99.9421 54.2648C99.9421 54.0169 100.018 53.7749 100.16 53.5713C100.301 53.3677 100.501 53.2124 100.734 53.1261L105.549 51.3755L107.299 46.5593C107.385 46.3269 107.54 46.1264 107.744 45.9848C107.947 45.8432 108.189 45.7674 108.437 45.7674C108.685 45.7674 108.927 45.8432 109.13 45.9848C109.334 46.1264 109.489 46.3269 109.575 46.5593L111.326 51.3755L116.14 53.1261C116.375 53.2095 116.578 53.364 116.72 53.5681C116.863 53.7722 116.939 54.0157 116.937 54.2648Z" fill="url(#paint1_linear_233_6)"/>
<path d="M88.4124 118.963C92.7552 113.896 98.6662 115.042 101.079 116.248C111.483 126.653 98.3647 137.962 88.4124 131.629C80.4507 126.563 79.0634 121.074 79.365 118.963C83.7078 121.858 87.2061 120.169 88.4124 118.963Z" fill="white"/>
<circle cx="4.07136" cy="4.07136" r="4.07136" transform="matrix(-1 0 0 1 86.1509 109.011)" fill="white"/>
<defs>
<filter id="filter0_d_233_6" x="0.3" y="0.3" width="175.4" height="175.4" filterUnits="userSpaceOnUse" color-interpolation-filters="sRGB">
<feFlood flood-opacity="0" result="BackgroundImageFix"/>
<feColorMatrix in="SourceAlpha" type="matrix" values="0 0 0 0 0 0 0 0 0 0 0 0 0 0 0 0 0 0 127 0" result="hardAlpha"/>
<feOffset dy="4"/>
<feGaussianBlur stdDeviation="3.35"/>
<feComposite in2="hardAlpha" operator="out"/>
<feColorMatrix type="matrix" values="0 0 0 0 0 0 0 0 0 0 0 0 0 0 0 0 0 0 0.25 0"/>
<feBlend mode="normal" in2="BackgroundImageFix" result="effect1_dropShadow_233_6"/>
<feBlend mode="normal" in="SourceGraphic" in2="effect1_dropShadow_233_6" result="shape"/>
</filter>
<linearGradient id="paint0_linear_233_6" x1="85.6511" y1="28" x2="85.6511" y2="140.784" gradientUnits="userSpaceOnUse">
<stop stop-color="#A52DFF"/>
<stop offset="1" stop-color="#631B99"/>
</linearGradient>
<linearGradient id="paint1_linear_233_6" x1="108.44" y1="45.7674" x2="108.44" y2="62.7623" gradientUnits="userSpaceOnUse">
<stop stop-color="#A52DFF"/>
<stop offset="1" stop-color="#631B99"/>
</linearGradient>
</defs>
</svg>
