<svg width="42" height="81" viewBox="0 0 42 81" fill="none" xmlns="http://www.w3.org/2000/svg">
<circle cx="19.6358" cy="44.3561" r="3.72719" fill="#FFF7F7"/>
<path d="M14.2652 51.2637C13.1313 54.3215 15.0465 56.8848 16.3494 59.0273C16.8091 59.7828 17.2561 60.5 17.8828 60.7324C18.5095 60.9648 19.3157 60.713 20.1574 60.4386C22.5422 59.665 25.6652 58.9691 26.7988 55.9119C27.9324 52.8548 25.2902 49.4067 21.3799 51.3012C19.65 47.3153 15.399 48.2059 14.2652 51.2637Z" fill="white"/>
<path d="M23.9885 8.12579C24.8961 4.48544 24.0425 1.19178 23.5023 0C20.747 8.93837 14.9123 11.2136 8.2672 16.5766C2.95115 20.867 0.649695 29.0903 0.163476 32.6657C-1.13312 51.68 5.51194 63.2187 11.9949 73.6197C18.4779 84.0207 32.0922 82.8831 36.4682 73.6197C40.8442 64.3563 36.4682 57.8556 32.0922 53.4677C28.5914 49.9574 24.1505 49.8382 22.3677 50.2174C26.2575 45.1469 23.1241 41.3874 21.0711 40.1414C18.4779 39.2205 12.5784 36.4361 9.7259 32.6657C6.87339 28.8953 8.53735 26.2192 9.7259 25.3525C13.4536 27.6277 15.5606 28.2778 16.6951 26.0025C17.8296 23.7273 19.6125 21.7771 21.5574 20.9645C23.5023 20.152 24.7989 20.9645 23.5023 16.5766C22.2057 12.1887 22.854 12.6762 23.9885 8.12579Z" fill="url(#paint0_linear_21_381)"/>
<path d="M41.6096 18.863C41.611 19.0419 41.5566 19.2168 41.454 19.3634C41.3515 19.5099 41.2058 19.6209 41.0373 19.6808L37.5795 20.9386L36.3226 24.3969C36.2606 24.5639 36.1491 24.7079 36.0029 24.8096C35.8568 24.9112 35.683 24.9657 35.505 24.9657C35.327 24.9657 35.1532 24.9112 35.0071 24.8096C34.8609 24.7079 34.7494 24.5639 34.6874 24.3969L33.4305 20.9381L29.9727 19.6808C29.8058 19.6188 29.6619 19.5073 29.5602 19.3611C29.4586 19.2149 29.4041 19.0411 29.4041 18.863C29.4041 18.6849 29.4586 18.5111 29.5602 18.3649C29.6619 18.2187 29.8058 18.1071 29.9727 18.0452L33.4305 16.7879L34.6874 13.329C34.7494 13.1621 34.8609 13.0181 35.0071 12.9164C35.1532 12.8147 35.327 12.7603 35.505 12.7603C35.683 12.7603 35.8568 12.8147 36.0029 12.9164C36.1491 13.0181 36.2606 13.1621 36.3226 13.329L37.58 16.7879L41.0373 18.0452C41.2058 18.1051 41.3515 18.2161 41.454 18.3626C41.5566 18.5092 41.611 18.6841 41.6096 18.863Z" fill="url(#paint1_linear_21_381)"/>
<path d="M21.1237 65.3279C24.2427 61.6891 28.4879 62.5122 30.2206 63.3785C37.693 70.8509 28.2713 78.9732 21.1237 74.4248C15.4057 70.7861 14.4094 66.844 14.626 65.3279C17.7449 67.4071 20.2574 66.1942 21.1237 65.3279Z" fill="white"/>
<circle cx="2.92399" cy="2.92399" r="2.92399" transform="matrix(-1 0 0 1 19.4993 58.1806)" fill="white"/>
<defs>
<linearGradient id="paint0_linear_21_381" x1="19.1404" y1="0" x2="19.1404" y2="81" gradientUnits="userSpaceOnUse">
<stop stop-color="#A52DFF"/>
<stop offset="1" stop-color="#631B99"/>
</linearGradient>
<linearGradient id="paint1_linear_21_381" x1="35.5069" y1="12.7603" x2="35.5069" y2="24.9657" gradientUnits="userSpaceOnUse">
<stop stop-color="#A52DFF"/>
<stop offset="1" stop-color="#631B99"/>
</linearGradient>
</defs>
</svg>
